<svg xmlns="http://www.w3.org/2000/svg" width="22" height="22">
    <path style="stroke:none;fill-rule:nonzero;fill:#000;fill-opacity:1" d="M14.96 2.281c1.306-.078 2.477.2 3.567.848a6.181 6.181 0 0 1 2.774 3.723c.347 1.359.195 3.308-.383 4.867-.18.488-.59 1.328-.844 1.746-1.531 2.48-4.21 4.523-7.687 5.86-.598.226-1.262.437-1.387.437s-.79-.211-1.387-.438c-3.18-1.222-5.773-3.094-7.308-5.281-1.172-1.668-1.793-3.598-1.79-5.59C.516 6.88.978 5.625 2 4.403c1.398-1.669 3.738-2.45 5.914-1.977 1.008.219 2.094.77 2.797 1.418l.277.258.309-.278a6.099 6.099 0 0 1 3.664-1.543Zm1.267 1.805c-.282-.059-1.07-.102-1.266-.066l-.348.054c-.851.137-1.804.656-2.422 1.324-.136.145-.46.586-.714.977l-.47.707-.487-.727c-.56-.828-.922-1.226-1.426-1.558-.39-.254-.59-.36-1.004-.504-.602-.211-.79-.242-1.488-.238-.707.004-1.028.062-1.63.304C3.489 4.953 2.438 6.367 2.27 8c-.07.68.058 1.79.296 2.621.813 2.809 3.258 5.176 7.024 6.805.3.129.742.304.98.39l.43.149.43-.149c2.14-.753 4.289-2.05 5.703-3.453 1.597-1.586 2.445-3.363 2.594-5.449.085-1.187-.133-2.074-.727-2.973-.629-.949-1.617-1.609-2.773-1.855ZM15.37 6.62l-.008-.875.278.024c1.07.097 1.984.875 2.277 1.933.082.305.082 1.05-.004 1.574-.164 1.012-.496 1.868-1.043 2.68-.246.367-.824 1.059-.906 1.086-.024.008-.309-.27-.637-.61l-.594-.624.243-.266a4.914 4.914 0 0 0 1.207-2.508c.105-.676.07-.965-.153-1.226a.74.74 0 0 0-.496-.286l-.152-.027Zm0 0"/>
</svg>
