<svg xmlns="http://www.w3.org/2000/svg" width="26" height="26">
    <path style="stroke:none;fill-rule:evenodd;fill:#000;fill-opacity:1" d="M10.422 1.11c-.442.085-.578.124-.813.218-.765.313-1.453.988-1.754 1.723-.21.508-.238.668-.261 1.531l-.02.836H5.332c-2.535 0-2.516-.004-2.84.324-.203.2-.32.473-.32.758 0 .285.117.559.32.758.266.27.477.324 1.219.324h.621l.012 7.336c.011 6.59.02 7.355.082 7.55.394 1.231 1.136 1.973 2.355 2.356.192.059.887.07 6.024.082 3.914.008 5.902 0 6.101-.031a3.295 3.295 0 0 0 2.5-1.953c.254-.602.235-.016.25-8.004l.012-7.336h.621c.742 0 .953-.055 1.219-.324.203-.2.32-.473.32-.758 0-.285-.117-.559-.32-.758-.324-.328-.305-.324-2.84-.324h-2.242l-.02-.836c-.015-.547-.047-.906-.09-1.05-.382-1.298-1.37-2.2-2.628-2.403-.266-.043-5.06-.059-5.266-.02m5.113 2.211c.274.094.55.371.645.645.05.156.07.367.07.832v.621H9.742l.016-.707c.015-.676.02-.711.133-.906.136-.23.347-.407.586-.493.128-.046.66-.058 2.503-.058 2.07-.004 2.368.004 2.555.066M19.5 14.703c0 7.996.027 7.371-.324 7.723-.348.347.09.324-6.176.324s-5.828.023-6.176-.324c-.351-.352-.324.273-.324-7.723V7.582h13v7.121"/>
</svg>
