<svg xmlns="http://www.w3.org/2000/svg" width="32" height="32">
    <path style="stroke:none;fill-rule:evenodd;fill:#000;fill-opacity:1" d="M12.828 1.367c-.547.106-.71.153-1 .27-.941.383-1.789 1.21-2.16 2.117-.258.625-.29.82-.32 1.887L9.32 6.668H6.562c-3.12 0-3.097-.004-3.496.398a1.31 1.31 0 0 0 0 1.868c.329.332.59.398 1.5.398h.766l.016 9.027c.015 8.11.023 9.055.101 9.293.485 1.516 1.399 2.43 2.899 2.903.234.07 1.09.082 7.414.097 4.816.012 7.261 0 7.508-.039a4.03 4.03 0 0 0 3.074-2.398c.316-.746.293-.024.308-9.856l.016-9.027h.766c.91 0 1.171-.066 1.5-.398a1.31 1.31 0 0 0 0-1.868c-.399-.402-.375-.398-3.497-.398H22.68l-.028-1.027c-.02-.676-.054-1.118-.105-1.293-.473-1.594-1.692-2.707-3.238-2.957-.329-.055-6.227-.075-6.48-.024M19.12 4.09c.336.113.676.453.79.789.066.195.089.453.089 1.023v.766h-8.008l.016-.867c.02-.836.023-.875.168-1.121.164-.282.422-.5.719-.606.156-.054.812-.07 3.082-.07 2.546-.004 2.914.008 3.144.086M24 18.098c0 9.84.031 9.074-.398 9.504-.426.425.109.398-7.602.398-7.71 0-7.176.027-7.602-.398-.43-.43-.398.335-.398-9.504V9.332h16v8.766"/>
</svg>
